<?xml version="1.0" encoding="UTF-8"?>
<svg version="1.1" xmlns="http://www.w3.org/2000/svg" width="1922" height="1922" viewBox="0 0 1922 1922">
  <g transform="translate(386.00,1716.00)" fill="#6366f1">
    <path d="M160 -318V-782Q160 -956 281.5 -1038.0Q403 -1120 575 -1120Q729 -1120 810 -1051V-1449L980 -1530H990V-318Q990 -144 868.5 -62.0Q747 20 575.0 20.0Q403 20 281.5 -62.0Q160 -144 160 -318ZM810 -322V-778Q810 -877 741.5 -918.5Q673 -960 575.0 -960.0Q477 -960 408.5 -918.5Q340 -877 340 -778V-322Q340 -223 408.5 -181.5Q477 -140 575.0 -140.0Q673 -140 741.5 -181.5Q810 -223 810 -322Z"/>
  </g>
</svg>
