<?xml version="1.0" encoding="UTF-8"?>
<svg version="1.1" xmlns="http://www.w3.org/2000/svg" width="6314" height="1674" viewBox="0 0 6314 1674">
  <g transform="translate(-98,1592)" fill="#6366f1">
    <path d="M160 -318V-782Q160 -956 281.5 -1038.0Q403 -1120 575 -1120Q729 -1120 810 -1051V-1449L980 -1530H990V-318Q990 -144 868.5 -62.0Q747 20 575.0 20.0Q403 20 281.5 -62.0Q160 -144 160 -318ZM810 -322V-778Q810 -877 741.5 -918.5Q673 -960 575.0 -960.0Q477 -960 408.5 -918.5Q340 -877 340 -778V-322Q340 -223 408.5 -181.5Q477 -140 575.0 -140.0Q673 -140 741.5 -181.5Q810 -223 810 -322ZM1370 20V-1039L1540 -1120H1550V-61L1380 20ZM1375.0 -1429.0Q1410 -1465 1460.0 -1465.0Q1510 -1465 1545.0 -1429.0Q1580 -1393 1580.0 -1342.5Q1580 -1292 1545.0 -1256.0Q1510 -1220 1460.0 -1220.0Q1410 -1220 1375.0 -1256.0Q1340 -1292 1340.0 -1342.5Q1340 -1393 1375.0 -1429.0ZM1930 -318V-1039L2100 -1120H2110V-322Q2110 -223 2178.5 -181.5Q2247 -140 2345.0 -140.0Q2443 -140 2511.5 -181.5Q2580 -223 2580 -322V-1039L2750 -1120H2760V-318Q2760 -144 2638.5 -62.0Q2517 20 2345.0 20.0Q2173 20 2051.5 -62.0Q1930 -144 1930 -318ZM3130 20H3120V-762Q3120 -936 3241.5 -1018.0Q3363 -1100 3535 -1100H3710V-1090L3639 -940H3535Q3437 -940 3368.5 -898.5Q3300 -857 3300 -758V-61ZM3910 20H3900V-782Q3900 -956 4021.5 -1038.0Q4143 -1120 4315.0 -1120.0Q4487 -1120 4608.5 -1038.0Q4730 -956 4730 -782V-61L4560 20H4550V-778Q4550 -877 4481.5 -918.5Q4413 -960 4315.0 -960.0Q4217 -960 4148.5 -918.5Q4080 -877 4080 -778V-61ZM5620 20H5610V-48Q5526 20 5390 20Q5233 20 5111.5 -62.0Q4990 -144 4990 -318V-407Q4990 -581 5111.5 -663.0Q5233 -745 5390 -745Q5525 -745 5610 -677V-758Q5610 -857 5541.5 -898.5Q5473 -940 5375 -940H5150V-950L5221 -1100H5375Q5547 -1100 5668.5 -1018.0Q5790 -936 5790 -762V-61ZM5615 -322V-403Q5615 -502 5546.5 -543.5Q5478 -585 5392.5 -585.0Q5307 -585 5238.5 -543.5Q5170 -502 5170 -403V-322Q5170 -223 5238.5 -181.5Q5307 -140 5392.5 -140.0Q5478 -140 5546.5 -181.5Q5615 -223 5615 -322ZM6170 20V-1449L6340 -1530H6350V-61L6180 20Z"/>
  </g>
</svg>
